<svg id="Layer_1" data-name="Layer 1" xmlns="http://www.w3.org/2000/svg" viewBox="0 0 132.47 138.71"><defs><style>.cls-1,.cls-3,.cls-6{fill:none;}.cls-1{stroke:#c12026;}.cls-1,.cls-11,.cls-12,.cls-3,.cls-4,.cls-6,.cls-7,.cls-8{stroke-miterlimit:10;}.cls-2{fill:#415eab;}.cls-11,.cls-12,.cls-3,.cls-4,.cls-7,.cls-8{stroke:#231f20;}.cls-4,.cls-5{fill:#d3d3d3;}.cls-6{stroke:#d3d3d3;stroke-width:0.2px;}.cls-7{fill:#d2d2d1;}.cls-8{fill:#c62127;}.cls-9{font-size:9.69px;fill:#231f20;font-family:KrabbyPatty, Krabby Patty;}.cls-10{fill:#00aeef;letter-spacing:0em;}.cls-11{fill:#282525;}.cls-12{fill:#dcdbdb;}</style></defs><title>spraybro</title><path class="cls-1" d="M312,450" transform="translate(-205.75 -175.63)"/><path class="cls-2" d="M324.81,200.62l-4.33,13.23a19.42,19.42,0,0,0,8.92.09l-27.71,8.84c4.54-2.12,4.89-8.79,4.89-8.79l-17.35,1-1.08-6.22-1.2-6.9L284.87,190l24.71-2.08c.19-3.57-2-5.57-2.67-7.07L324.54,201Zm-11.26-.06c2.26-6.56-10.09-7.79-10.09-7.79l5.18,14.93S311.29,207.11,313.55,200.56Z" transform="translate(-205.75 -175.63)"/><path class="cls-2" d="M334,193.42s6.7,7.93,2,15.69a10.3,10.3,0,0,1-5.44,4.44l-1.22.39a19.42,19.42,0,0,1-8.92-.09l4.33-13.23a15.7,15.7,0,0,0,2.8-8.56l.12-.38A9.7,9.7,0,0,1,334,193.42Z" transform="translate(-205.75 -175.63)"/><path class="cls-2" d="M330.77,213.5s2,7.43-8.64,13.5-20.44-4.22-20.44-4.22l27.71-8.84a10.8,10.8,0,0,0,1.22-.39Z" transform="translate(-205.75 -175.63)"/><path class="cls-2" d="M329.4,213.94l1.22-.39A10.8,10.8,0,0,1,329.4,213.94Z" transform="translate(-205.75 -175.63)"/><path class="cls-2" d="M327.48,187.83a21.74,21.74,0,0,1,.13,4.23l-2.8,8.56-.27.34-17.63-20.14a2.6,2.6,0,0,1-.1-.25,3.88,3.88,0,0,0-1.49-1.56l-.88-1S324.79,171.07,327.48,187.83Z" transform="translate(-205.75 -175.63)"/><path class="cls-2" d="M324.81,200.62l2.8-8.56A15.7,15.7,0,0,1,324.81,200.62Z" transform="translate(-205.75 -175.63)"/><path class="cls-2" d="M303.46,192.77s12.35,1.23,10.09,7.79-4.91,7.14-4.91,7.14Z" transform="translate(-205.75 -175.63)"/><path class="cls-2" d="M306.81,180.57a2.6,2.6,0,0,0,.1.25L305.32,179A3.88,3.88,0,0,1,306.81,180.57Z" transform="translate(-205.75 -175.63)"/><path class="cls-2" d="M289.23,215l17.35-1s-.35,6.67-4.89,8.79-14.41.32-15.64-3.06-1.15-4.45-1.15-4.45h0l4.42.38Z" transform="translate(-205.75 -175.63)"/><path class="cls-2" d="M289.23,215l.11.64-4.42-.38Z" transform="translate(-205.75 -175.63)"/><path class="cls-2" d="M288.15,208.79l1.08,6.22-4.31.26h0l-1.66-.15c-11.54-1-35.37-3.21-34.78-4,.78-1-.8-4.13-.8-4.13l36-17,1.19-.1L287,201.89Z" transform="translate(-205.75 -175.63)"/><polygon class="cls-2" points="79.05 13.91 79.12 14.34 77.93 14.44 79.05 13.91"/><path class="cls-2" d="M284.8,189.54l-1.12.53-.14-.7s-1.74-7.25,4.28-10.74,12.77-2.42,13.28-2c.35.24,2.63,1.3,4.22,2.43l1.59,1.81c.68,1.5,2.86,3.5,2.67,7.07L284.87,190Z" transform="translate(-205.75 -175.63)"/><path class="cls-3" d="M284.9,215.27l-1.66-.15c-11.54-1-35.37-3.21-34.78-4,.78-1-.8-4.13-.8-4.13l36-17" transform="translate(-205.75 -175.63)"/><path class="cls-3" d="M305.32,179c-1.59-1.13-3.87-2.19-4.22-2.43-.51-.37-7.27-1.44-13.28,2s-4.28,10.74-4.28,10.74l.14.7" transform="translate(-205.75 -175.63)"/><path class="cls-3" d="M309.58,187.89c.19-3.57-2-5.57-2.67-7.07" transform="translate(-205.75 -175.63)"/><path class="cls-3" d="M306.58,214s-.35,6.67-4.89,8.79-14.41.32-15.64-3.06-1.15-4.45-1.15-4.45" transform="translate(-205.75 -175.63)"/><polyline class="cls-3" points="52.41 32.11 81.2 26.26 95.83 23.29"/><polyline class="cls-3" points="68.6 33.44 82.4 33.16 93.71 32.93"/><path class="cls-3" d="M303.46,192.77s12.35,1.23,10.09,7.79-4.91,7.14-4.91,7.14" transform="translate(-205.75 -175.63)"/><path class="cls-3" d="M324.81,200.62l-.27.34" transform="translate(-205.75 -175.63)"/><path class="cls-3" d="M304.44,178s20.35-6.93,23,9.83a21.74,21.74,0,0,1,.13,4.23" transform="translate(-205.75 -175.63)"/><path class="cls-3" d="M330.62,213.55a10.3,10.3,0,0,0,5.44-4.44c4.67-7.76-2-15.69-2-15.69a9.7,9.7,0,0,0-6.3-1.74" transform="translate(-205.75 -175.63)"/><path class="cls-3" d="M320.48,213.85a19.42,19.42,0,0,0,8.92.09" transform="translate(-205.75 -175.63)"/><path class="cls-3" d="M301.69,222.78s9.82,10.29,20.44,4.22,8.64-13.5,8.64-13.5" transform="translate(-205.75 -175.63)"/><path class="cls-4" d="M209,233" transform="translate(-205.75 -175.63)"/><rect class="cls-5" x="208.16" y="234.54" width="2.83" height="0.84" rx="0.18" ry="0.18" transform="translate(-160.79 -209.06) rotate(10.21)"/><rect class="cls-5" x="209.08" y="234.16" width="2.83" height="0.84" rx="0.18" ry="0.18" transform="translate(-160.84 -209.22) rotate(10.21)"/><rect class="cls-5" x="207.64" y="234.79" width="1" height="0.3" rx="0.06" ry="0.06" transform="translate(-160.81 -208.8) rotate(10.21)"/><path class="cls-5" d="M253.21,226.5c-1.55,1.44-3.48,1.79-5.4,2.47s-4,.88-5.83,1.72c-2.93,1.33-.39,5.64,2.52,4.32,1-.43,2.15-.42,3.15-.76s2.17-.71,3.26-1.09a14.83,14.83,0,0,0,5.82-3.13c2.36-2.19-1.18-5.72-3.54-3.54Z" transform="translate(-205.75 -175.63)"/><path class="cls-5" d="M243.41,230a2.62,2.62,0,0,0-1.45.38c-.19.1-.57.2,0,0q.56-.06.27,0a4.5,4.5,0,0,0-.75.09,4.34,4.34,0,0,0-1.09.42,2.5,2.5,0,0,0,1.26,4.66,5,5,0,0,0,1.08-.16c.63-.17-.41,0,.11,0a2.5,2.5,0,0,0,0-5,6.26,6.26,0,0,0-1.11.12c-.2,0-.79.1-.08.06l1.26,4.66a1,1,0,0,1-.44.14q-.33,0,0,0a4.5,4.5,0,0,0,.89-.14,7.59,7.59,0,0,0,1.18-.55l-1.26.34h.1a2.51,2.51,0,0,0,2.5-2.5,2.56,2.56,0,0,0-2.5-2.5Z" transform="translate(-205.75 -175.63)"/><path class="cls-5" d="M253.86,228.81c.12.22.24.43.34.65l-.34-1.26,0,.21.34-1.26q1.58-1,.66-.63l-.85.36-.7.34c-.34.13-1.21.34-1.75.5a2.5,2.5,0,0,0,1.33,4.82c.6-.17,1.21-.33,1.8-.53a13,13,0,0,0,1.35-.57l.5-.25q-.17.08,0,0a3.29,3.29,0,0,0,2.1-1.83,3.52,3.52,0,0,0-.49-3.09,2.5,2.5,0,0,0-4.32,2.52Z" transform="translate(-205.75 -175.63)"/><path class="cls-5" d="M259,228.08a2.32,2.32,0,0,1-.65,1.24,2.7,2.7,0,0,1-1.39.58c-.64.05-.64,1.05,0,1a3.78,3.78,0,0,0,2-.8,3.25,3.25,0,0,0,1-1.75c.21-.61-.75-.87-1-.27Z" transform="translate(-205.75 -175.63)"/><path class="cls-5" d="M262.17,227.63c-1.33.61-2.64,1.36-4,2-.58.28-.07,1.14.5.86,1.33-.65,2.63-1.39,4-2,.58-.27.08-1.13-.5-.86Z" transform="translate(-205.75 -175.63)"/><path class="cls-5" d="M260.46,227.69h-.29a.5.5,0,0,0,0,1h.29a.5.5,0,0,0,0-1Z" transform="translate(-205.75 -175.63)"/><path class="cls-5" d="M259.27,228.9l.05.08c.29.57,1.15.07.86-.5a1.1,1.1,0,0,0-.41-.44c-.54-.36-1,.51-.5.86Z" transform="translate(-205.75 -175.63)"/><path class="cls-5" d="M262.53,227.75s-.3.07-.36.1l-.42.18-1.17.5c-.59.25-.08,1.12.5.86l1.25-.54a3.46,3.46,0,0,0,.89-.39c.51-.4-.21-1.1-.71-.71Z" transform="translate(-205.75 -175.63)"/><ellipse class="cls-6" cx="57.33" cy="52.53" rx="0.41" ry="0.1"/><ellipse class="cls-6" cx="263.59" cy="229.04" rx="0.17" ry="0.1" transform="translate(-291.32 48.8) rotate(-40.23)"/><path class="cls-3" d="M206.45,236.12l14.72,75.47s10.52,5.24,34.54-.24,24.06-4.6,24.14-7.51-14.66-75.92-14.66-75.92-14.66-6.24-15.39-6.34a13.32,13.32,0,0,1-2.81-1.41l-.65-3.45s-3.43-1.93-4.2-2.18-2.8-11.19-2.8-11.19-12.88-2.05-17.76,3.12l.32,1.63,1.67,8.43L220.21,220l.53,4.31S204.26,235.7,206.45,236.12Z" transform="translate(-205.75 -175.63)"/><path class="cls-3" d="M242.92,214.74c-7.3,4.23-19.55,2.1-19.55,2.1l-.87-5.69-.54-2.73a26.77,26.77,0,0,0,5-.1,89.38,89.38,0,0,0,12.6-2.4" transform="translate(-205.75 -175.63)"/><path class="cls-7" d="M246.34,216.71q-.93.64-1.88,1.17a26.11,26.11,0,0,1-4.46,2,29,29,0,0,1-5.2,1.22l-.73.09a36.45,36.45,0,0,1-12.42-.77,2.67,2.67,0,0,1-1.13-.43l2.85-3.13s1.44.2,3.13.37a87.25,87.25,0,0,0,9.81-.27,39.72,39.72,0,0,0,5.37-1.56.91.91,0,0,0,.46-.85" transform="translate(-205.75 -175.63)"/><path class="cls-4" d="M265.19,227.91q-2.19,1.09-4.33,2a93.06,93.06,0,0,1-17.28,5.7A86.85,86.85,0,0,1,232,237.43c-13.42,1.13-22.76-1.31-24.92-2a.31.31,0,0,0-.4.35l1.11,6.9a.31.31,0,0,0,.29.26c3.22.13,36.56,1.19,58.57-8" transform="translate(-205.75 -175.63)"/><path class="cls-8" d="M279,298.51c-36.82,15.71-58.93,7.59-58.93,7.59L207.79,243s40,1.07,58.82-8Z" transform="translate(-205.75 -175.63)"/><text class="cls-9" transform="translate(12.63 105.75) rotate(-8.22)">Spray<tspan class="cls-10" x="25.72" y="0">Budz</tspan></text><path class="cls-4" d="M206.76,235c0,.44.13-.11.38-.32,2.15-1.79,12.73-10.58,13.81-10.7,0,0,17.86,3.83,26.25-4.15l16.53,7,1.28.55-.14.57" transform="translate(-205.75 -175.63)"/><line class="cls-4" x1="13.63" y1="61.89" x2="1.02" y2="59.76"/><rect class="cls-5" x="9.57" y="55.7" width="14.29" height="4.98"/><rect class="cls-5" x="14.46" y="56.08" width="14.29" height="4.98"/><rect class="cls-5" x="24.92" y="53.85" width="15.79" height="4.98"/><rect class="cls-5" x="27.4" y="58.19" width="8.81" height="1.58"/><rect class="cls-5" x="233.15" y="234.47" width="8.81" height="1.7" rx="0.46" ry="0.46" transform="translate(-238.2 -137.55) rotate(-8.58)"/><rect class="cls-5" x="228.3" y="235.12" width="8.81" height="1.7" rx="0.46" ry="0.46" transform="translate(-223.75 -156.41) rotate(-4.55)"/><rect class="cls-5" x="14.77" y="59.83" width="8.81" height="1.7" rx="0.46" ry="0.46"/><rect class="cls-5" x="210.29" y="234.52" width="8.64" height="1.6" rx="0.44" ry="0.44" transform="translate(-173.56 -201.37) rotate(7.42)"/><rect class="cls-5" x="214.61" y="234.82" width="6.52" height="1.93" rx="0.42" ry="0.42" transform="translate(-173.48 -201.79) rotate(7.42)"/><rect class="cls-5" x="212.24" y="233.64" width="6.52" height="1.93" rx="0.42" ry="0.42" transform="translate(-173.65 -201.49) rotate(7.42)"/><path class="cls-11" d="M239.55,205.92l.51,1.07,1.62,6.67-2.11-.32c-2.11-.32-2.66-1.35-2.81-2.9s2.9-3.92,2.9-3.92" transform="translate(-205.75 -175.63)"/><path class="cls-12" d="M220.25,306.91l.91,4.68a46.66,46.66,0,0,0,8.18,1.92c3.12.25,12.8.28,14.86-.18s11.5-2,11.5-2l6.26-1.41,4.32-.95,9.39-2.08s3.88-.8,3.94-1.71a31.93,31.93,0,0,0-.34-5.22l-.26-1.46-2.78.93-.91.47-1,.44-1.91.88-2.12.81L268,303.16l-2.41.66-2.41.53s-15.72,2.53-17.37,2.53-5,.38-5,.38l-20.18-1Z" transform="translate(-205.75 -175.63)"/><path class="cls-4" d="M229.6,224.85s9.5.1,13.44-2.29,3.85-2.88,3.85-2.88l-.71-2.55" transform="translate(-205.75 -175.63)"/><path class="cls-4" d="M234.22,224.69a16.53,16.53,0,0,0-1.78.08c-.62.06-1.07.14-1.14.16-.83.14-3.65-.12-10.46-1.27l-.32-2.94V220s21.1,1.16,25.19-2.84" transform="translate(-205.75 -175.63)"/><path class="cls-4" d="M234.13,224.34" transform="translate(-205.75 -175.63)"/><line class="cls-4" x1="30.75" y1="48.73" x2="26" y2="49.04"/></svg>